<svg width="24" height="24" viewBox="0 0 24 24" fill="none" xmlns="http://www.w3.org/2000/svg">
<path d="M23.9895 11.4805V11.4695C23.9866 11.3205 23.9712 11.1318 23.9578 10.9669C23.9539 10.9192 23.9501 10.8735 23.9463 10.8288C23.9251 10.5974 23.881 10.2328 23.8349 9.9765V9.97153C23.4768 7.82186 22.5389 5.80531 21.122 4.14041C19.7127 2.48445 17.8993 1.25763 15.8794 0.592066L15.8727 0.590079C15.6932 0.526503 15.4686 0.463921 15.2708 0.408291L15.241 0.400344C14.9233 0.312927 14.5105 0.22253 14.1658 0.165907H14.162C13.5188 0.0526625 12.8343 -0.000979835 12.0692 1.35423e-05C11.9569 0.00299367 11.6238 0.0159076 11.4798 0.0218678H11.4548C11.4366 0.0238546 11.4059 0.0268347 11.3752 0.0298148C11.3416 0.032795 11.308 0.0357751 11.2907 0.0367685L11.2523 0.040742C11.0545 0.0576294 10.8088 0.0794837 10.6302 0.107298H10.6216C10.1953 0.163921 9.7134 0.258292 9.30061 0.36657C7.61774 0.791735 5.99919 1.61624 4.61585 2.74968C3.2421 3.87617 2.09011 5.31756 1.28563 6.9169C1.12531 7.23478 0.964994 7.59239 0.793156 8.0116C0.407239 9.03378 0.0347615 10.1255 0.000201782 11.2331C-0.0141981 11.7149 0.746116 11.4368 1.00051 11.3563C1.06099 11.3374 1.66099 11.1576 1.66099 11.1189L1.62451 11.6255C1.60339 11.9136 1.59379 12.2056 1.59379 12.4967C1.59379 14.0484 1.88755 15.5553 2.46834 16.9748C3.02802 18.3447 3.82961 19.5745 4.85008 20.6305C5.87056 21.6864 7.05903 22.5159 8.38286 23.095C9.75469 23.695 11.21 24 12.7105 24C14.211 24 15.6663 23.696 17.0381 23.095C18.362 22.5159 19.5504 21.6864 20.5709 20.6305C21.5914 19.5745 22.393 18.3447 22.9527 16.9748C23.064 16.7036 23.1658 16.4245 23.256 16.1454L23.2608 16.1305C23.305 16.0142 23.3674 15.8424 23.4115 15.6983L23.4144 15.6904C23.52 15.3715 23.6285 14.9811 23.6967 14.6712C23.7111 14.6076 23.7331 14.5033 23.7533 14.408C23.7658 14.3483 23.7783 14.2927 23.7869 14.251L23.8032 14.1546C23.8301 13.9957 23.8608 13.8159 23.8829 13.6738L23.8935 13.5894C23.9117 13.4364 23.9415 13.1831 23.9511 13.0878C23.9991 12.4937 24.0115 11.9682 23.9895 11.4815V11.4805ZM4.89232 11.1159L4.95856 10.7096L5.32912 10.8596C5.52304 10.9381 5.70832 11.0404 5.88592 11.1527C5.97519 11.2083 6.06255 11.2669 6.14991 11.3265C6.22479 11.3772 6.31023 11.4745 6.40815 11.4546C6.45807 11.4447 6.49743 11.402 6.51855 11.3543C6.53967 11.3066 6.54639 11.253 6.55311 11.2003C6.64431 10.4752 6.83823 9.76193 7.15023 9.10531C7.21359 8.97319 7.28078 8.84206 7.35182 8.71392C7.91822 7.69769 8.73133 6.84339 9.70189 6.24339C9.81804 6.17186 9.9534 6.08941 10.0974 6.01789C10.1857 5.97418 10.2587 5.93743 10.3326 5.89869L10.3576 5.88677C10.4046 5.8669 10.4584 5.84306 10.5112 5.81922C10.5611 5.79637 10.611 5.77451 10.658 5.75465L10.6763 5.7467C10.7166 5.73279 10.7617 5.71491 10.8097 5.69604C10.8798 5.66822 10.9518 5.64041 11.0228 5.61756L11.0286 5.61557C11.067 5.60365 11.1064 5.59074 11.1486 5.57683C11.2244 5.552 11.3022 5.52518 11.3876 5.50431L11.4481 5.48842C11.5048 5.47352 11.5758 5.45465 11.6123 5.44372L11.6344 5.43776C11.6555 5.43279 11.6833 5.42782 11.714 5.42087C11.7687 5.40994 11.8311 5.39703 11.8676 5.38809C11.9627 5.36624 12.0567 5.35134 12.1479 5.33842C12.2017 5.33047 12.2535 5.32253 12.3035 5.31359L12.3188 5.31061H12.3351C12.3515 5.30763 12.3783 5.30465 12.4071 5.30167C12.4475 5.29769 12.4859 5.29372 12.5147 5.29074C12.7998 5.25696 13.0801 5.252 13.4132 5.25498H13.4353C13.4795 5.25994 13.5294 5.26193 13.5831 5.26392C13.6599 5.26789 13.7387 5.27087 13.8135 5.27882C14.0238 5.29968 14.1822 5.32054 14.3262 5.34538C15.3303 5.5073 16.3191 5.91259 17.1869 6.51756C17.8004 6.9457 18.3543 7.47418 18.8209 8.0712C18.2141 8.33246 17.5719 8.72584 17.0065 9.31888C16.1204 10.2467 15.5982 11.4606 15.4484 12.9378C14.3857 12.9248 12.6011 12.9626 10.7694 13.2656C9.05101 13.5497 7.6427 14.0116 6.58191 14.6384C6.10959 14.9176 5.69968 15.2344 5.35792 15.5831C4.97776 14.6146 4.77808 13.5695 4.77808 12.4927C4.77808 12.0308 4.81552 11.5659 4.88944 11.1119L4.89232 11.1159ZM20.4884 13.1315C20.4884 13.1931 20.4864 13.2507 20.4874 13.2914V13.3063L20.4864 13.3212C20.4845 13.355 20.4816 13.4007 20.4788 13.4464C20.4768 13.4901 20.474 13.5328 20.472 13.5666L20.4624 13.7265L20.4413 13.9202C20.4336 13.9987 20.4231 14.096 20.4125 14.1666L20.3684 14.4487C20.3597 14.5132 20.3453 14.5788 20.3319 14.6424C20.3242 14.6791 20.3165 14.7139 20.3108 14.7427C20.2877 14.8719 20.2512 15.0109 20.2186 15.1351L20.2023 15.1937C19.8087 16.3659 19.1751 17.4099 18.3169 18.298C16.8193 19.8477 14.8282 20.701 12.7095 20.701C10.5908 20.701 8.60077 19.8477 7.10319 18.298C6.84303 18.0288 6.60303 17.7437 6.38415 17.4457C6.63279 17.0533 7.01583 16.7046 7.53998 16.3937C8.3915 15.8881 9.57325 15.5056 11.0516 15.2593C13.6743 14.8222 16.2932 14.9791 16.3182 14.9801C16.5879 14.997 16.8519 14.8977 17.0477 14.704C17.2436 14.5113 17.3521 14.2431 17.3492 13.9629C17.3319 12.5712 17.6785 11.4894 18.3793 10.7484C18.8266 10.2745 19.3671 9.9914 19.849 9.82153C19.8874 9.91491 19.9479 10.0639 19.9709 10.1235L19.9767 10.1414C19.9949 10.197 20.017 10.2596 20.0391 10.3202C20.0602 10.3808 20.0823 10.4424 20.1015 10.501L20.1072 10.5189C20.1197 10.5656 20.136 10.6182 20.1524 10.6738C20.1783 10.7593 20.2042 10.8477 20.2244 10.9291L20.2896 11.1993C20.306 11.2609 20.3175 11.3275 20.329 11.3921C20.3348 11.4278 20.3415 11.4606 20.3472 11.4874V11.4904C20.3828 11.6633 20.4058 11.8381 20.4279 12.008L20.4375 12.0844C20.4644 12.3546 20.4797 12.594 20.4855 12.8156C20.4893 12.901 20.4884 13.0182 20.4855 13.1315H20.4884Z" fill="white"/>
</svg>
