<svg width="786" height="477" viewBox="0 0 786 477" fill="none" xmlns="http://www.w3.org/2000/svg">
<mask id="path-1-inside-1_3179_5597" fill="white">
<path d="M785.655 253.07V252.724C785.56 248.012 785.057 242.043 784.617 236.828C784.491 235.32 784.366 233.875 784.24 232.461C783.548 225.141 782.102 213.612 780.593 205.507V205.35C768.866 137.366 738.149 73.5929 691.744 20.9404C645.59 -31.4293 586.201 -70.2275 520.052 -91.2759L519.831 -91.3387C513.952 -93.3493 506.595 -95.3285 500.119 -97.0878L499.144 -97.3391C488.738 -100.104 475.218 -102.962 463.932 -104.753H463.806C442.741 -108.335 420.325 -110.031 395.267 -110C391.589 -109.905 380.679 -109.497 375.963 -109.308H375.146C374.548 -109.246 373.542 -109.151 372.536 -109.057C371.436 -108.963 370.335 -108.869 369.77 -108.837L368.512 -108.712C362.035 -108.177 353.987 -107.486 348.139 -106.607H347.856C333.897 -104.816 318.114 -101.832 304.595 -98.4072C249.481 -84.9614 196.474 -58.8865 151.169 -23.0414C106.179 12.5839 68.4509 58.1678 42.1044 108.747C36.854 118.8 31.6036 130.109 25.9758 143.367C13.3371 175.693 1.13844 210.219 0.00660836 245.247C-0.464988 260.484 24.4353 251.688 32.7668 249.143C34.7475 248.546 54.3974 242.86 54.3974 241.635L53.2027 257.657C52.511 266.767 52.1966 276.003 52.1966 285.208C52.1966 334.279 61.8172 381.936 80.8382 426.829C99.1676 470.151 125.42 509.044 158.84 542.438C192.261 575.833 231.183 602.065 274.539 620.38C319.466 639.355 367.129 649 416.269 649C465.409 649 513.072 639.387 557.999 620.38C601.355 602.065 640.277 575.833 673.698 542.438C707.118 509.044 733.37 470.151 751.7 426.829C755.347 418.253 758.679 409.425 761.635 400.597L761.792 400.126C763.238 396.45 765.282 391.016 766.728 386.46L766.822 386.209C770.28 376.125 773.833 363.778 776.065 353.977C776.537 351.966 777.26 348.667 777.92 345.651C778.329 343.767 778.738 342.007 779.021 340.688L779.555 337.641C780.436 332.614 781.442 326.928 782.165 322.435L782.511 319.765C783.108 314.927 784.083 306.916 784.397 303.9C785.969 285.114 786.378 268.495 785.655 253.101V253.07ZM160.224 241.54L162.393 228.691L174.529 233.435C180.879 235.917 186.947 239.153 192.764 242.703C195.688 244.462 198.549 246.316 201.41 248.2C203.862 249.803 206.66 252.881 209.867 252.253C211.502 251.939 212.791 250.588 213.483 249.08C214.174 247.572 214.394 245.876 214.614 244.211C217.601 221.277 223.952 198.721 234.17 177.955C236.245 173.777 238.446 169.63 240.772 165.578C259.322 133.439 285.951 106.422 317.737 87.4471C321.541 85.1852 325.974 82.5777 330.69 80.3158C333.582 78.9335 335.972 77.7711 338.393 76.5459L339.21 76.1689C340.751 75.5406 342.511 74.7867 344.24 74.0327C345.875 73.3101 347.51 72.619 349.051 71.9907L349.648 71.7393C350.969 71.2995 352.446 70.7341 354.018 70.1372C356.313 69.2575 358.671 68.3779 360.998 67.6553L361.186 67.5925C362.444 67.2155 363.733 66.8071 365.116 66.3673C367.6 65.5819 370.147 64.7337 372.945 64.074L374.926 63.5713C376.781 63.1001 379.107 62.5032 380.302 62.1576L381.025 61.9691C381.717 61.812 382.628 61.655 383.634 61.4351C385.427 61.0895 387.47 60.6811 388.665 60.3983C391.777 59.7072 394.858 59.236 397.845 58.8276C399.606 58.5762 401.304 58.3249 402.938 58.0422L403.442 57.9479H403.976C404.51 57.8537 405.391 57.7594 406.334 57.6652C407.654 57.5395 408.912 57.4139 409.855 57.3196C419.193 56.2515 428.373 56.0944 439.283 56.1887H440.006C441.452 56.3457 443.087 56.4086 444.848 56.4714C447.363 56.5971 449.941 56.6913 452.393 56.9426C459.279 57.6024 464.466 58.2621 469.182 59.0475C502.068 64.1682 534.451 76.9857 562.872 96.1178C582.962 109.658 601.103 126.371 616.383 145.252C596.513 153.514 575.48 165.955 556.962 184.71C527.943 214.052 510.84 252.442 505.935 299.156C471.131 298.748 412.685 299.942 352.698 309.524C296.421 318.508 250.298 333.117 215.558 352.94C200.089 361.768 186.664 371.789 175.472 382.816C163.022 352.186 156.482 319.137 156.482 285.082C156.482 270.474 157.708 255.772 160.129 241.415L160.224 241.54ZM670.994 305.283C670.994 307.23 670.931 309.052 670.962 310.34V310.812L670.931 311.283C670.868 312.351 670.774 313.796 670.679 315.241C670.617 316.624 670.522 317.974 670.459 319.043L670.145 324.1L669.453 330.226C669.202 332.708 668.856 335.787 668.51 338.017L667.064 346.94C666.781 348.982 666.309 351.055 665.869 353.066C665.618 354.228 665.366 355.327 665.177 356.239C664.423 360.323 663.228 364.721 662.159 368.648L661.625 370.501C648.734 407.571 627.984 440.589 599.877 468.675C550.831 517.683 485.625 544.669 416.237 544.669C346.85 544.669 281.675 517.683 232.629 468.675C224.109 460.161 216.249 451.145 209.081 441.72C217.224 429.311 229.768 418.284 246.934 408.451C274.821 392.461 313.524 380.366 361.941 372.575C447.834 358.752 533.602 363.715 534.419 363.747C543.254 364.281 551.9 361.139 558.314 355.013C564.727 348.919 568.28 340.436 568.186 331.577C567.62 287.564 578.97 253.353 601.921 229.917C616.572 214.931 634.272 205.978 650.055 200.606C651.312 203.559 653.293 208.271 654.048 210.156L654.236 210.722C654.834 212.481 655.557 214.46 656.28 216.377C656.972 218.293 657.695 220.241 658.324 222.094L658.512 222.66C658.921 224.136 659.455 225.801 659.99 227.56C660.839 230.262 661.688 233.058 662.348 235.634L664.486 244.179C665.02 246.127 665.397 248.232 665.775 250.274C665.963 251.405 666.183 252.442 666.372 253.29V253.384C667.535 258.85 668.29 264.379 669.013 269.752L669.327 272.171C670.208 280.716 670.711 288.287 670.899 295.292C671.025 297.994 670.994 301.701 670.899 305.283H670.994Z"/>
</mask>
<path d="M785.655 253.07V252.724C785.56 248.012 785.057 242.043 784.617 236.828C784.491 235.32 784.366 233.875 784.24 232.461C783.548 225.141 782.102 213.612 780.593 205.507V205.35C768.866 137.366 738.149 73.5929 691.744 20.9404C645.59 -31.4293 586.201 -70.2275 520.052 -91.2759L519.831 -91.3387C513.952 -93.3493 506.595 -95.3285 500.119 -97.0878L499.144 -97.3391C488.738 -100.104 475.218 -102.962 463.932 -104.753H463.806C442.741 -108.335 420.325 -110.031 395.267 -110C391.589 -109.905 380.679 -109.497 375.963 -109.308H375.146C374.548 -109.246 373.542 -109.151 372.536 -109.057C371.436 -108.963 370.335 -108.869 369.77 -108.837L368.512 -108.712C362.035 -108.177 353.987 -107.486 348.139 -106.607H347.856C333.897 -104.816 318.114 -101.832 304.595 -98.4072C249.481 -84.9614 196.474 -58.8865 151.169 -23.0414C106.179 12.5839 68.4509 58.1678 42.1044 108.747C36.854 118.8 31.6036 130.109 25.9758 143.367C13.3371 175.693 1.13844 210.219 0.00660836 245.247C-0.464988 260.484 24.4353 251.688 32.7668 249.143C34.7475 248.546 54.3974 242.86 54.3974 241.635L53.2027 257.657C52.511 266.767 52.1966 276.003 52.1966 285.208C52.1966 334.279 61.8172 381.936 80.8382 426.829C99.1676 470.151 125.42 509.044 158.84 542.438C192.261 575.833 231.183 602.065 274.539 620.38C319.466 639.355 367.129 649 416.269 649C465.409 649 513.072 639.387 557.999 620.38C601.355 602.065 640.277 575.833 673.698 542.438C707.118 509.044 733.37 470.151 751.7 426.829C755.347 418.253 758.679 409.425 761.635 400.597L761.792 400.126C763.238 396.45 765.282 391.016 766.728 386.46L766.822 386.209C770.28 376.125 773.833 363.778 776.065 353.977C776.537 351.966 777.26 348.667 777.92 345.651C778.329 343.767 778.738 342.007 779.021 340.688L779.555 337.641C780.436 332.614 781.442 326.928 782.165 322.435L782.511 319.765C783.108 314.927 784.083 306.916 784.397 303.9C785.969 285.114 786.378 268.495 785.655 253.101V253.07ZM160.224 241.54L162.393 228.691L174.529 233.435C180.879 235.917 186.947 239.153 192.764 242.703C195.688 244.462 198.549 246.316 201.41 248.2C203.862 249.803 206.66 252.881 209.867 252.253C211.502 251.939 212.791 250.588 213.483 249.08C214.174 247.572 214.394 245.876 214.614 244.211C217.601 221.277 223.952 198.721 234.17 177.955C236.245 173.777 238.446 169.63 240.772 165.578C259.322 133.439 285.951 106.422 317.737 87.4471C321.541 85.1852 325.974 82.5777 330.69 80.3158C333.582 78.9335 335.972 77.7711 338.393 76.5459L339.21 76.1689C340.751 75.5406 342.511 74.7867 344.24 74.0327C345.875 73.3101 347.51 72.619 349.051 71.9907L349.648 71.7393C350.969 71.2995 352.446 70.7341 354.018 70.1372C356.313 69.2575 358.671 68.3779 360.998 67.6553L361.186 67.5925C362.444 67.2155 363.733 66.8071 365.116 66.3673C367.6 65.5819 370.147 64.7337 372.945 64.074L374.926 63.5713C376.781 63.1001 379.107 62.5032 380.302 62.1576L381.025 61.9691C381.717 61.812 382.628 61.655 383.634 61.4351C385.427 61.0895 387.47 60.6811 388.665 60.3983C391.777 59.7072 394.858 59.236 397.845 58.8276C399.606 58.5762 401.304 58.3249 402.938 58.0422L403.442 57.9479H403.976C404.51 57.8537 405.391 57.7594 406.334 57.6652C407.654 57.5395 408.912 57.4139 409.855 57.3196C419.193 56.2515 428.373 56.0944 439.283 56.1887H440.006C441.452 56.3457 443.087 56.4086 444.848 56.4714C447.363 56.5971 449.941 56.6913 452.393 56.9426C459.279 57.6024 464.466 58.2621 469.182 59.0475C502.068 64.1682 534.451 76.9857 562.872 96.1178C582.962 109.658 601.103 126.371 616.383 145.252C596.513 153.514 575.48 165.955 556.962 184.71C527.943 214.052 510.84 252.442 505.935 299.156C471.131 298.748 412.685 299.942 352.698 309.524C296.421 318.508 250.298 333.117 215.558 352.94C200.089 361.768 186.664 371.789 175.472 382.816C163.022 352.186 156.482 319.137 156.482 285.082C156.482 270.474 157.708 255.772 160.129 241.415L160.224 241.54ZM670.994 305.283C670.994 307.23 670.931 309.052 670.962 310.34V310.812L670.931 311.283C670.868 312.351 670.774 313.796 670.679 315.241C670.617 316.624 670.522 317.974 670.459 319.043L670.145 324.1L669.453 330.226C669.202 332.708 668.856 335.787 668.51 338.017L667.064 346.94C666.781 348.982 666.309 351.055 665.869 353.066C665.618 354.228 665.366 355.327 665.177 356.239C664.423 360.323 663.228 364.721 662.159 368.648L661.625 370.501C648.734 407.571 627.984 440.589 599.877 468.675C550.831 517.683 485.625 544.669 416.237 544.669C346.85 544.669 281.675 517.683 232.629 468.675C224.109 460.161 216.249 451.145 209.081 441.72C217.224 429.311 229.768 418.284 246.934 408.451C274.821 392.461 313.524 380.366 361.941 372.575C447.834 358.752 533.602 363.715 534.419 363.747C543.254 364.281 551.9 361.139 558.314 355.013C564.727 348.919 568.28 340.436 568.186 331.577C567.62 287.564 578.97 253.353 601.921 229.917C616.572 214.931 634.272 205.978 650.055 200.606C651.312 203.559 653.293 208.271 654.048 210.156L654.236 210.722C654.834 212.481 655.557 214.46 656.28 216.377C656.972 218.293 657.695 220.241 658.324 222.094L658.512 222.66C658.921 224.136 659.455 225.801 659.99 227.56C660.839 230.262 661.688 233.058 662.348 235.634L664.486 244.179C665.02 246.127 665.397 248.232 665.775 250.274C665.963 251.405 666.183 252.442 666.372 253.29V253.384C667.535 258.85 668.29 264.379 669.013 269.752L669.327 272.171C670.208 280.716 670.711 288.287 670.899 295.292C671.025 297.994 670.994 301.701 670.899 305.283H670.994Z" stroke="#755AE2" stroke-opacity="0.2" stroke-width="2" mask="url(#path-1-inside-1_3179_5597)"/>
</svg>
