<svg width="10" height="14" viewBox="0 0 10 14" fill="none" xmlns="http://www.w3.org/2000/svg">
<path d="M1.875 13L3.75 10.3333M7.5 13L6.25 10.3333L4.375 8.33333L5 4.33333M5 4.33333L2.5 5L1.25 7M5 4.33333L6.875 6.33333L8.75 7M5 1.66667C5 1.84348 5.06585 2.01305 5.18306 2.13807C5.30027 2.2631 5.45924 2.33333 5.625 2.33333C5.79076 2.33333 5.94973 2.2631 6.06694 2.13807C6.18415 2.01305 6.25 1.84348 6.25 1.66667C6.25 1.48986 6.18415 1.32029 6.06694 1.19526C5.94973 1.07024 5.79076 1 5.625 1C5.45924 1 5.30027 1.07024 5.18306 1.19526C5.06585 1.32029 5 1.48986 5 1.66667Z" stroke="#797979" stroke-width="1.5" stroke-linecap="round" stroke-linejoin="round"/>
</svg>
